<svg id="Group_1455" data-name="Group 1455" xmlns="http://www.w3.org/2000/svg" width="156.908" height="60" viewBox="0 0 156.908 60">
  <path id="Path_1855" data-name="Path 1855" d="M46.224,22.742c.944,0,3.613.407,3.613,1.594a2.711,2.711,0,0,1-.784,1.5h-.112S47.688,23.8,45.735,23.8c-2.222,0-3.009,2.468-3.009,4.4,0,2.65,1.459,4.778,3.749,4.778a7.337,7.337,0,0,0,3.631-1.456l.092.089a4.71,4.71,0,0,1-4.664,3.029,5.465,5.465,0,0,1-5.408-5.586,6.058,6.058,0,0,1,6.1-6.306" transform="translate(-4.999 -2.839)" fill="#fb7540"/>
  <path id="Path_1856" data-name="Path 1856" d="M68.353,33.708,67,33.748A1.812,1.812,0,0,1,64.985,31.8c0-1.84.112-4.578.112-7.181,0-2.11-.044-4.125-.112-5.566a6.4,6.4,0,0,0-.4-2.511l.068-.089c1.5.022,2.895.268,2.895,1.657,0,2.27-.089,4.624-.089,7,0,2,.021,4.038.089,6.013a3.922,3.922,0,0,0,.807,2.463Z" transform="translate(-8.042 -2.057)" fill="#fb7540"/>
  <path id="Path_1857" data-name="Path 1857" d="M74.273,33.828l-1.138.018a1.792,1.792,0,0,1-2.02-1.819c0-1.279.088-2.579.088-3.837,0-5.112-.516-5.812-.54-5.812a4.089,4.089,0,0,1,1.1-.2c1.008,0,1.9.538,1.9,1.437,0,2.378-.111,5.071-.111,6.73,0,.878,0,2.848.716,3.358Zm-3.428-15.06a1.514,1.514,0,1,1,1.5,1.5,1.536,1.536,0,0,1-1.5-1.5" transform="translate(-8.8 -2.156)" fill="#fb7540"/>
  <path id="Path_1858" data-name="Path 1858" d="M76.663,38.83a1.529,1.529,0,0,1-.786-.2v-.118c1.393-.535,2.042-1.614,2.042-10.275,0-3.9-.156-4.488-1.034-4.824l-.578-.222v-.946c.942,0,1.521-.2,1.521-1.346,0-3.409,1.841-4.935,4.512-4.935,2.243,0,3.7,1.1,3.7,2.6l-.11.068a3.265,3.265,0,0,0-2.781-1.17c-1.214,0-2.849.652-2.849,3.12v.6c0,.292-.071,1.055-.071,1.055h1.616a2.163,2.163,0,0,0,1.213-.224,5.6,5.6,0,0,1,.023.606c0,.943-.449,1.145-1.258,1.145-.178,0-1.3-.023-1.5-.023-.068.876-.092,1.728-.092,2.537,0,2.286.071,4.62.071,7.849,0,2.853-1.728,4.7-3.637,4.7" transform="translate(-9.454 -2.001)" fill="#fb7540"/>
  <path id="Path_1859" data-name="Path 1859" d="M89.467,22.741a5.3,5.3,0,0,1,5.7,5.343c0,3.341-2.064,6.55-5.922,6.55a5.439,5.439,0,0,1-5.7-5.676c0-3.209,2.04-6.217,5.919-6.217m0,10.863c2,0,2.964-2.56,2.964-5.118,0-2.355-1.052-4.713-3.21-4.713-2,0-2.939,2.4-2.939,4.8,0,2.533,1.055,5.027,3.184,5.027" transform="translate(-10.411 -2.839)" fill="#fb7540"/>
  <path id="Path_1860" data-name="Path 1860" d="M98.615,28.909c0-4.557-.469-5.744-.559-5.837a4.034,4.034,0,0,1,1.1-.2c1.03,0,1.82.518,1.82,1.436a3.469,3.469,0,0,1-.16.83l.089.022a3.988,3.988,0,0,1,3.388-2.289c.876,0,1.1.38,1.1.875a4.745,4.745,0,0,1-.272,1.593l-.112.047a4.352,4.352,0,0,0-1.8-.627c-1.745,0-2.237,1.814-2.237,4.306,0,4.421.467,5.226.515,5.249a11.035,11.035,0,0,1-1.571.224c-.831,0-1.41-.337-1.41-1.728,0-1.345.106-2.669.106-3.9" transform="translate(-12.215 -2.855)" fill="#fb7540"/>
  <path id="Path_1861" data-name="Path 1861" d="M118.564,34.505l-.2,0-1.106.014a1.792,1.792,0,0,1-2.02-1.819c0-1.927.066-3.274.066-5.566,0-1.546-.045-3.029-1.977-3.029a2.952,2.952,0,0,0-2.694,3.213c0,2.014.095,3.542.095,5.675,0,1.21-.627,1.526-1.414,1.526a8.346,8.346,0,0,1-1.593-.225c.158-.066.535-1.479.535-5.5,0-1.12-.041-2.286-.088-3.366-.111-2.176-.447-2.379-.447-2.379a3.992,3.992,0,0,1,1.1-.2c1.03,0,1.748.539,1.748,1.236a2.049,2.049,0,0,1-.089.562l.089.021c.517-1.168,2.308-1.931,3.926-1.931,2.962,0,3.277,1.594,3.277,3.233s-.093,3.117-.093,5.047c0,.814.075,2.569.679,3.227a.889.889,0,0,0,.178.148" transform="translate(-13.422 -2.839)" fill="#fb7540"/>
  <path id="Path_1862" data-name="Path 1862" d="M125.01,33.83l-1.142.016a1.794,1.794,0,0,1-2.02-1.819c0-1.279.093-2.579.093-3.837,0-5.112-.517-5.812-.54-5.812a4.059,4.059,0,0,1,1.1-.2c1.01,0,1.906.538,1.906,1.437,0,2.378-.11,5.071-.11,6.73,0,.883-.011,2.884.719,3.37m-3.432-14.947a1.515,1.515,0,1,1,1.5,1.5,1.536,1.536,0,0,1-1.5-1.5" transform="translate(-15.118 -2.156)" fill="#fb7540"/>
  <path id="Path_1863" data-name="Path 1863" d="M136.521,34.516l-1.55.006c-.92,0-1.886-.38-1.907-1.571l-.089-.048a3.464,3.464,0,0,1-3.051,1.732,2.864,2.864,0,0,1-2.984-3.005c0-3.253,3.653-4.217,6.1-4.262v-.2c0-1.885-.424-2.939-2.156-2.939a4.985,4.985,0,0,0-3.1,1.347l-.088-.093a4.445,4.445,0,0,1,4.153-2.738c3.184,0,3.613,1.911,3.613,3.949,0,1.193-.069,2.7-.069,3.93v.268c0,.779.272,2.989,1.11,3.479Zm-5.547-1.473c.762,0,2-.7,2-1.549,0-.9.068-2.089.068-3.232-.922.156-3.571.562-3.571,2.941,0,1.346.721,1.84,1.5,1.84" transform="translate(-15.816 -2.839)" fill="#fb7540"/>
  <path id="Path_1864" data-name="Path 1864" d="M62.175,34.516l-1.552.006c-.919,0-1.886-.38-1.907-1.571l-.09-.048a3.463,3.463,0,0,1-3.052,1.732,2.864,2.864,0,0,1-2.982-3.005c0-3.253,3.655-4.217,6.1-4.262v-.2c0-1.885-.426-2.939-2.157-2.939a4.968,4.968,0,0,0-3.1,1.347l-.089-.093A4.447,4.447,0,0,1,57.5,22.741c3.185,0,3.613,1.911,3.613,3.949,0,1.193-.068,2.7-.068,3.93v.268c0,.779.273,2.989,1.111,3.479Zm-5.547-1.473c.762,0,2-.7,2-1.549,0-.9.069-2.089.069-3.232-.921.156-3.569.562-3.569,2.941,0,1.346.716,1.84,1.5,1.84" transform="translate(-6.552 -2.839)" fill="#fb7540"/>
  <path id="Path_1865" data-name="Path 1865" d="M23.04,64.725c0,.372-.838.282-.838.282-1.812,0-3.717-.751-3.76-3.095l-.175-.1a6.84,6.84,0,0,1-6.016,3.415A5.645,5.645,0,0,1,6.37,59.306c0-6.415,7.207-8.315,12.03-8.4v-.4c0-3.717-.84-5.789-4.249-5.789a9.774,9.774,0,0,0-6.1,2.654l-.176-.182c.711-2.654,4.288-5.4,8.183-5.4,6.279,0,7.122,3.765,7.122,7.782Zm-8.713-2.633c1.5,0,3.939-1.373,3.939-3.053,0-1.775.133-4.117.133-6.372-1.813.309-7.036,1.109-7.036,5.8,0,2.651,1.414,3.626,2.963,3.626" transform="translate(-0.784 -5.241)" fill="#ba0731"/>
  <path id="Path_1866" data-name="Path 1866" d="M88.168,41.7c7.39,0,11.17,5.147,11.17,10.471,0,6.553-4.045,12.845-11.612,12.845-7.391,0-11.174-5.412-11.174-11.13,0-6.293,4-12.187,11.616-12.187m0,21.292c3.915,0,5.805-5.015,5.805-10.03,0-4.619-2.067-9.238-6.29-9.238-3.916,0-5.766,4.707-5.766,9.417,0,4.968,2.07,9.851,6.251,9.851" transform="translate(-9.549 -5.229)" fill="#ba0731"/>
  <path id="Path_1867" data-name="Path 1867" d="M149.125,63.424s-.139.584-1.463.565c-1.8,0-3.694-.707-3.738-3.172l-.178-.087s-1.8,3.475-6.862,3.475-8.312-4.135-8.312-10.118c0-7.524,4.265-13.021,12.933-13.021a12.9,12.9,0,0,1,2.377.217s.138-.082.124-.39c-.122-3.238-.094-1.9-.128-4.284-.037-2.727,2.46-3.206,4.744-3.234a.563.563,0,0,1,.509.656Zm-5.333-9.249c.045-1.451.132-3.87.132-5.365V44.718c0-1.364-1.451-1.585-3.033-1.585-4.667,0-7.042,4.927-7.042,9.853,0,3.035.838,8.4,4.883,8.4,3.83,0,4.973-4.179,5.061-7.216" transform="translate(-16.035 -4.205)" fill="#ba0731"/>
  <path id="Path_1868" data-name="Path 1868" d="M156.217,59.935a9.392,9.392,0,0,0,6.668,2.95c2.863,0,3.874-1.5,3.874-3.038,0-4.529-11.439-3.87-11.439-11.349,0-4.223,4.047-6.555,8.139-6.555,1.761,0,6.642.659,6.642,2.465a6.011,6.011,0,0,1-1.581,3.165c-.2.224-.425-.314-.425-.314-.61-.894-2.554-3.378-5.295-3.378a3.283,3.283,0,0,0-3.432,3.342c0,4.485,11.439,3.387,11.439,11.261,0,4.445-4.314,6.775-8.4,6.775-2.9,0-7.478-1.23-7.478-3.124a5.571,5.571,0,0,1,.842-2.29c.115-.2.451.089.451.089" transform="translate(-19.323 -5.26)" fill="#ba0731"/>
  <path id="Path_1869" data-name="Path 1869" d="M34.222,63.726s.031.54-.388.613a4.422,4.422,0,0,1-.81.06c-1.937,0-3.96-.881-3.96-3.829l.06-20.617c0-2.727,1.918-3.214,4.877-3.238,0,0,.285,0,.285.5Z" transform="translate(-3.577 -4.616)" fill="#ba0731"/>
  <path id="Path_1870" data-name="Path 1870" d="M36.414.575c-7.752-2.26-17.989,2.667-20.7,5.581a4.615,4.615,0,0,0-.433.516l.1.125a2.929,2.929,0,0,1,.4-.324l.134-.1C22.513,2.055,28.793,2.987,29.3,3.745c-3.368,1.222-8.862,4-11.411,8.014-4.28,6.736-4.181,12.637-1.02,16.063a4.145,4.145,0,0,0,.628.546c4.331,3.179,12.018-3.11,14.262-7.2.012-.025.025-.05.04-.075C37.189,12.706,38.6,1.238,36.414.575M31.587,11.757a16.014,16.014,0,0,1-2.208,5.623c-.227.351-.455.683-.694,1-2.734,3.733-6.1,5.19-8.18,3.73-2.254-1.578-2.152-5.994.689-10.465,2.593-4.082,8.9-6.984,10.044-6.182.635.447.9,2.891.348,6.3" transform="translate(-1.794 0)" fill="#fbb040"/>
  <path id="Path_1871" data-name="Path 1871" d="M14.942,3.8c-1.024.466-2.256,1.085-3.246,1.637C-.011,11.981-2.485,22.405,2.3,28.583c2.2,2.845,6.03,4.055,10.8,4.218,6.922-.346,12.371-3.6,17.591-12.329C26.883,26.386,17.609,28,17.609,28c-6.721.81-9.324-2.041-10.546-3.409C2.11,19.039,4.611,10.094,15,3.946Z" transform="translate(0 -0.468)" fill="#fb7540"/>
  <path id="Path_1872" data-name="Path 1872" d="M56.378,45.759c.965-2.158,3.8-3.565,6.62-3.565,5.808,0,6.423,3.036,6.423,6.115,0,3.213-.036,12.14-.047,16.085,0,0,.088.671-.494.673-.472,0-.472.008-.472.008-1.935,0-3.958-.343-3.958-2.982,0-3.785.132-7,.132-11.5,0-2.905-.089-5.718-3.741-5.718-4,0-4.468,5.6-4.468,7.712v9.848l0,.011c0,1.835-.4,2.577-1.261,2.577l-.605.017c-1.935,0-2.862-.225-2.862-2.866V50.649c0-2.9.364-5.772-3.42-5.772-1.848,0-4.4,2.068-4.4,6.071,0,3.958.019,6.874.019,11.055,0,2.376-1.075,3.071-2.616,3.071a7.083,7.083,0,0,1-2.054-.168c-.265-.07-.212-.719-.212-.719l-.011-21.208c0-.588.324-.652.324-.652a3.091,3.091,0,0,1,.985-.132,3.553,3.553,0,0,1,3.572,3.54c.836-2.155,3.237-3.54,6.051-3.54,4.138,0,6.316,1.631,6.491,3.565" transform="translate(-4.863 -5.291)" fill="#ba0731"/>
  <path id="Path_1873" data-name="Path 1873" d="M110.1,45.728c1.014-2.288,3.545-3.784,6.713-3.784,5.809,0,6.425,3.123,6.425,6.334s.012,12.437.012,16.22c0,0,.068.579-1.024.545-1.936,0-3.856-.973-3.856-3.614v-10.9c0-3.035-.061-5.907-3.845-5.907-2.377,0-4.4,2.156-4.4,6.291l-.014.2c0,4.489.021,7.216.021,11,0,2.641-2.024,2.982-3.958,2.982,0,0-.071-.005-.473-.005-.552,0-.556-.694-.556-.694,0-3.86,0-17.775,0-20.986l-.005-.164s-.05-.759.246-.941a2.014,2.014,0,0,1,1.128-.149,3.67,3.67,0,0,1,3.589,3.568" transform="translate(-13.109 -5.26)" fill="#ba0731"/>
  <path id="Path_1874" data-name="Path 1874" d="M176.554,41.943a2.076,2.076,0,1,1-2.091,2.064,2.065,2.065,0,0,1,2.091-2.064m0,3.845a1.771,1.771,0,1,0-1.715-1.781,1.711,1.711,0,0,0,1.715,1.781m-.811-2.987h.937c.577,0,.85.23.85.7a.624.624,0,0,1-.638.661l.694,1.07h-.4l-.66-1.043h-.4v1.043h-.377Zm.377,1.079h.4c.331,0,.638-.017.638-.4,0-.323-.276-.374-.533-.374h-.5Z" transform="translate(-21.727 -5.226)" fill="#ba0731"/>
</svg>
